<svg width="34" height="26" viewBox="0 0 34 26" fill="none" xmlns="http://www.w3.org/2000/svg">
<path d="M33.2239 8.66658H0.00202054V0.683937C-0.0112617 0.51761 0.0413237 0.352722 0.148448 0.224794C0.255573 0.0968662 0.408662 0.0161373 0.574737 0H32.6512C32.8173 0.0161373 32.9704 0.0968662 33.0775 0.224794C33.1846 0.352722 33.2372 0.51761 33.2239 0.683937V8.66658Z" fill="#FC9A00"/>
<path d="M32.6512 26.0001H0.574737C0.408662 25.984 0.255573 25.9033 0.148448 25.7754C0.0413237 25.6474 -0.0112617 25.4825 0.00202054 25.3162V17.3336H33.2239V25.3162C33.2372 25.4825 33.1846 25.6474 33.0775 25.7754C32.9704 25.9033 32.8173 25.984 32.6512 26.0001Z" fill="#29AF00"/>
<path d="M33.2246 8.6662H0.00268555V17.3328H33.2246V8.6662Z" fill="#FCFCFC"/>
<path d="M16.6135 16.6112C15.8993 16.6112 15.2012 16.3994 14.6073 16.0026C14.0135 15.6058 13.5506 15.0419 13.2773 14.382C13.004 13.7222 12.9325 12.9961 13.0718 12.2957C13.2112 11.5952 13.5551 10.9517 14.0601 10.4467C14.5651 9.94171 15.2086 9.59779 15.909 9.45846C16.6095 9.31912 17.3356 9.39063 17.9954 9.66395C18.6553 9.93726 19.2192 10.4001 19.616 10.9939C20.0128 11.5878 20.2246 12.2859 20.2246 13.0001C20.2236 13.9576 19.8429 14.8755 19.1659 15.5525C18.4889 16.2295 17.5709 16.6103 16.6135 16.6112ZM16.6135 10.0607C16.0322 10.0607 15.4639 10.2331 14.9805 10.5561C14.4971 10.8791 14.1203 11.3382 13.8979 11.8753C13.6754 12.4124 13.6172 13.0034 13.7306 13.5736C13.844 14.1438 14.124 14.6675 14.535 15.0786C14.9461 15.4897 15.4699 15.7697 16.0401 15.8831C16.6103 15.9965 17.2013 15.9383 17.7384 15.7158C18.2755 15.4933 18.7346 15.1166 19.0576 14.6332C19.3805 14.1498 19.5529 13.5815 19.5529 13.0001C19.5522 12.2208 19.2422 11.4736 18.6912 10.9225C18.1401 10.3714 17.3929 10.0615 16.6135 10.0607Z" fill="#41479B"/>
<path d="M16.6124 13.4094C16.8385 13.4094 17.0219 13.226 17.0219 12.9999C17.0219 12.7737 16.8385 12.5904 16.6124 12.5904C16.3862 12.5904 16.2029 12.7737 16.2029 12.9999C16.2029 13.226 16.3862 13.4094 16.6124 13.4094Z" fill="#41479B"/>
<path d="M16.6124 13.061L15.5717 13.1657L13.3372 13.061V12.9382L15.5717 12.8335L16.6124 12.9382V13.061Z" fill="#41479B"/>
<path d="M16.6133 13.061L17.654 13.1657L19.8885 13.061V12.9382L17.654 12.8335L16.6133 12.9382V13.061Z" fill="#41479B"/>
<path d="M16.5515 12.9984L16.4468 11.9577L16.5515 9.72311H16.6743L16.779 11.9577L16.6743 12.9984H16.5515Z" fill="#41479B"/>
<path d="M16.5515 12.9987L16.4468 14.0387L16.5515 16.2733H16.6743L16.779 14.0387L16.6743 12.9987H16.5515Z" fill="#41479B"/>
<path d="M16.5701 13.043L15.7604 12.3815L14.2539 10.7269L14.3406 10.6402L15.9952 12.146L16.6567 12.9556L16.5701 13.043Z" fill="#41479B"/>
<path d="M16.5703 13.0434L17.2319 13.853L18.8865 15.3588L18.9731 15.2721L17.4673 13.6175L16.6577 12.956L16.5703 13.0434Z" fill="#41479B"/>
<path d="M16.5703 12.957L17.2319 12.1474L18.8865 10.6401L18.9731 10.7268L17.4673 12.3814L16.6577 13.0429L16.5703 12.957Z" fill="#41479B"/>
<path d="M16.5701 12.9569L15.7604 13.6184L14.2539 15.273L14.3406 15.3597L15.9952 13.8539L16.6567 13.0443L16.5701 12.9569Z" fill="#41479B"/>
<path d="M16.6368 13.0566L15.7159 13.552L13.6121 14.3103L13.5652 14.197L15.5874 13.2451L16.5884 12.9439L16.6368 13.0566Z" fill="#41479B"/>
<path d="M16.6363 13.0573L17.6373 12.7562L19.6594 11.8043L19.6125 11.6909L17.508 12.4492L16.5872 12.9447L16.6363 13.0573Z" fill="#41479B"/>
<path d="M16.5555 13.0239L16.0601 12.1031L15.3025 9.99858L15.4159 9.95163L16.3678 11.9738L16.6689 12.9748L16.5555 13.0239Z" fill="#41479B"/>
<path d="M16.5562 13.0227L16.8573 14.0237L17.8099 16.0459L17.9233 15.999L17.165 13.8945L16.6695 12.9736L16.5562 13.0227Z" fill="#41479B"/>
<path d="M16.5903 13.0573L15.5893 12.7562L13.5671 11.8043L13.6141 11.6909L15.7186 12.4492L16.6394 12.9447L16.5903 13.0573Z" fill="#41479B"/>
<path d="M16.5898 13.0566L17.5107 13.552L19.6152 14.3103L19.6622 14.197L17.6399 13.2451L16.639 12.9439L16.5898 13.0566Z" fill="#41479B"/>
<path d="M16.5562 12.977L16.8573 11.976L17.8099 9.9538L17.9233 10.0007L17.165 12.1053L16.6695 13.0261L16.5562 12.977Z" fill="#41479B"/>
<path d="M16.5553 12.9762L16.0598 13.897L15.3015 16.0015L15.4149 16.0485L16.3668 14.0263L16.6679 13.0253L16.5553 12.9762Z" fill="#41479B"/>
<path d="M16.6133 13.5523C16.9184 13.5523 17.1658 13.3049 17.1658 12.9998C17.1658 12.6946 16.9184 12.4473 16.6133 12.4473C16.3082 12.4473 16.0608 12.6946 16.0608 12.9998C16.0608 13.3049 16.3082 13.5523 16.6133 13.5523Z" fill="#F5F5F5"/>
<path d="M16.6137 13.3299C16.7968 13.3299 16.9452 13.1818 16.9452 12.9991C16.9452 12.8164 16.7968 12.6683 16.6137 12.6683C16.4306 12.6683 16.2822 12.8164 16.2822 12.9991C16.2822 13.1818 16.4306 13.3299 16.6137 13.3299Z" fill="#41479B"/>
</svg>
