<svg width="364" height="364" viewBox="0 0 364 364" fill="none" xmlns="http://www.w3.org/2000/svg">
<path d="M86 0C38.5029 0 0 38.5045 0 85.9962C0 133.488 38.5029 172 86 172C133.497 172 172 133.495 172 85.9962C172 38.4971 133.497 0 86 0ZM86 114.412L57.6006 86.0037L86 57.6032L114.407 86.0037L86 114.412Z" fill="white"/>
<path d="M81.2326 218.147C83.6336 221.288 88.3551 221.289 90.7566 218.148L108.937 194.369C112.492 189.719 119.907 192.392 119.694 198.247L118.587 228.599C118.444 232.525 122.032 235.532 125.861 234.694L155.007 228.32C160.685 227.079 164.631 233.843 160.767 238.194L140.545 260.964C137.967 263.867 138.772 268.422 142.187 270.261L168.836 284.609C173.944 287.36 172.574 295.053 166.831 295.862L137.096 300.047C133.24 300.589 130.914 304.613 132.361 308.237L143.672 336.558C145.838 341.982 139.794 347.005 134.878 343.864L109.761 327.818C106.439 325.695 102.012 327.305 100.819 331.069L91.7118 359.807C89.9401 365.398 82.048 365.398 80.2763 359.807L71.1692 331.069C69.9764 327.305 65.5495 325.695 62.2271 327.818L37.1102 343.864C32.1945 347.005 26.1498 341.982 28.3163 336.558L39.6273 308.236C41.0745 304.613 38.748 300.589 34.8921 300.046L5.16898 295.862C-0.573709 295.054 -1.94424 287.36 3.16444 284.609L29.8123 270.261C33.2281 268.422 34.0323 263.867 31.4538 260.964L11.2257 238.195C7.36113 233.845 11.307 227.079 16.9846 228.32L46.1402 234.695C49.9689 235.532 53.5572 232.525 53.4141 228.6L52.3074 198.253C52.0938 192.397 59.51 189.724 63.065 194.376L81.2326 218.147Z" fill="white"/>
<path d="M196.598 97.1003C190.467 90.9698 190.467 81.0302 196.598 74.8997L266.9 4.59789C273.03 -1.53263 282.97 -1.53263 289.1 4.59789L359.402 74.8997C365.533 81.0302 365.533 90.9698 359.402 97.1003L289.1 167.402C282.97 173.533 273.03 173.533 266.9 167.402L196.598 97.1003Z" fill="white"/>
<path fill-rule="evenodd" clip-rule="evenodd" d="M202 321.003L278 364L354 321.003L354 234.997L278 192L202 234.997V321.003ZM278 306C293.464 306 306 293.464 306 278C306 262.536 293.464 250 278 250C262.536 250 250 262.536 250 278C250 293.464 262.536 306 278 306Z" fill="white"/>
</svg>
