<svg width="32" height="32" viewBox="0 0 32 32" fill="none" xmlns="http://www.w3.org/2000/svg">
<path d="M19.8028 16.0027L29.2072 6.59833C30.2624 5.54853 30.2624 3.84808 29.2181 2.79282C28.1683 1.73756 26.4679 1.73756 25.4126 2.78188L25.4071 2.78735L16.0027 12.1918L6.59285 2.79282C5.54306 1.74302 3.83714 1.74302 2.78735 2.79282C1.73755 3.84261 1.73755 5.54853 2.78735 6.59833L12.1918 16.0027L2.78735 25.4071C1.73755 26.4569 1.73755 28.1629 2.78735 29.2127C3.83714 30.2624 5.54306 30.2624 6.59285 29.2127L15.9973 19.8082L25.4017 29.2127C26.4515 30.2624 28.1574 30.2624 29.2072 29.2127C30.257 28.1629 30.257 26.4569 29.2072 25.4071L19.8028 16.0027Z" fill="white"/>
</svg>
