<svg width="266" height="266" viewBox="0 0 266 266" fill="none" xmlns="http://www.w3.org/2000/svg">
<g clip-path="url(#clip0_66_6083)">
<path opacity="0.18" d="M239.616 29.9504H175.769C171.767 29.9504 168.523 33.1997 168.523 37.2078V91.3367C168.523 95.3448 171.767 98.594 175.769 98.594H239.616C243.617 98.594 246.861 95.3448 246.861 91.3367V37.2078C246.861 33.1997 243.617 29.9504 239.616 29.9504Z" fill="#FF5D16"/>
<path opacity="0.18" d="M239.161 113.21H172.644C168.209 113.21 164.613 116.814 164.613 121.26V185.221C164.613 189.668 168.209 193.272 172.644 193.272H239.161C243.596 193.272 247.192 189.668 247.192 185.221V121.26C247.192 116.814 243.596 113.21 239.161 113.21Z" fill="#FF5D16"/>
<path opacity="0.18" d="M108.215 110.073H27.7532C22.813 110.073 18.8081 114.087 18.8081 119.038V184.489C18.8081 189.441 22.813 193.455 27.7532 193.455H108.215C113.156 193.455 117.16 189.441 117.16 184.489V119.038C117.16 114.087 113.156 110.073 108.215 110.073Z" fill="#FF5D16"/>
<path opacity="0.18" d="M138.764 23.5773H36.3075C31.5843 23.5773 27.7554 27.4127 27.7554 32.1438V77.6796C27.7554 82.4108 31.5843 86.2462 36.3075 86.2462H138.764C143.487 86.2462 147.316 82.4108 147.316 77.6796V32.1438C147.316 27.4127 143.487 23.5773 138.764 23.5773Z" fill="#FF5D16"/>
<path d="M228.549 108.685H168.764C162.282 108.685 157.026 113.949 157.026 120.442V173.851C157.026 180.344 162.282 185.608 168.764 185.608H228.549C235.032 185.608 240.287 180.344 240.287 173.851V120.442C240.287 113.949 235.032 108.685 228.549 108.685Z" fill="#FFE4D6"/>
<path d="M197.191 174.68C212.232 174.68 224.426 162.466 224.426 147.4C224.426 132.334 212.232 120.12 197.191 120.12C182.151 120.12 169.958 132.334 169.958 147.4C169.958 162.466 182.151 174.68 197.191 174.68Z" fill="#FF5D16"/>
<path d="M197.191 176.397C181.227 176.397 168.241 163.388 168.241 147.398C168.241 131.408 181.227 118.4 197.191 118.4C213.154 118.4 226.141 131.408 226.141 147.398C226.141 163.388 213.154 176.397 197.191 176.397ZM197.191 121.837C183.119 121.837 171.673 133.303 171.673 147.398C171.673 161.493 183.119 172.959 197.191 172.959C211.262 172.959 222.709 161.493 222.709 147.398C222.709 133.303 211.262 121.837 197.191 121.837Z" fill="#FFAD88"/>
<path d="M199.356 147.841C199.724 146.282 198.76 144.72 197.204 144.352C195.647 143.984 194.088 144.95 193.72 146.509C193.353 148.068 194.317 149.63 195.873 149.998C197.43 150.366 198.989 149.4 199.356 147.841Z" fill="#AB4E25"/>
<path d="M211.66 127.397C211.337 127.14 210.863 127.194 210.606 127.518L196.328 145.51C196.071 145.834 196.125 146.308 196.448 146.566C196.771 146.824 197.245 146.769 197.502 146.446L211.78 128.453C212.038 128.13 211.983 127.655 211.66 127.397Z" fill="#AB4E25"/>
<path d="M211.261 156.562L197.43 150.187C196.626 149.815 196.27 148.854 196.641 148.049C197.012 147.244 197.971 146.888 198.775 147.259L212.606 153.635C213.41 154.006 213.765 154.967 213.395 155.772C213.024 156.577 212.065 156.933 211.261 156.562Z" fill="#AB4E25"/>
<path d="M114.652 101.567H35.3647C29.4875 101.567 24.7231 106.34 24.7231 112.227V176.258C24.7231 182.145 29.4875 186.917 35.3647 186.917H114.652C120.529 186.917 125.293 182.145 125.293 176.258V112.227C125.293 106.34 120.529 101.567 114.652 101.567Z" fill="#FFE4D6"/>
<path d="M61.1842 159.141L52.5693 175.906L57.2948 176.067L68.0775 165.063L61.1842 159.141Z" fill="#AB4E25"/>
<path d="M84.8077 160.077L92.2602 177.392L87.5347 177.231L77.5264 165.515L84.8077 160.077Z" fill="#AB4E25"/>
<path d="M93.3461 160.048C104.102 149.274 104.102 131.807 93.3461 121.033C82.5905 110.259 65.1522 110.259 54.3966 121.033C43.641 131.807 43.641 149.274 54.3966 160.048C65.1522 170.822 82.5905 170.822 93.3461 160.048Z" fill="#FF5D16"/>
<path d="M90.9243 157.622C100.342 148.188 100.342 132.893 90.9243 123.459C81.5064 114.026 66.237 114.026 56.8192 123.459C47.4013 132.893 47.4013 148.188 56.8192 157.622C66.237 167.055 81.5064 167.055 90.9243 157.622Z" fill="#FFAD88"/>
<path d="M86.9118 153.602C94.1137 146.389 94.1137 134.692 86.9118 127.478C79.71 120.265 68.0335 120.265 60.8316 127.478C53.6298 134.692 53.6298 146.389 60.8316 153.602C68.0335 160.816 79.71 160.816 86.9118 153.602Z" fill="#FF5D16"/>
<path d="M83.4568 150.142C88.7505 144.839 88.7505 136.242 83.4568 130.939C78.163 125.637 69.5801 125.637 64.2864 130.939C58.9926 136.242 58.9926 144.839 64.2864 150.142C69.5801 155.444 78.163 155.444 83.4568 150.142Z" fill="#FFAD88"/>
<path d="M80.4285 144.911C82.8436 141.284 81.8658 136.382 78.2446 133.963C74.6235 131.544 69.7302 132.524 67.3152 136.151C64.9001 139.778 65.8779 144.68 69.4991 147.099C73.1202 149.518 78.0135 148.538 80.4285 144.911Z" fill="#FF5D16"/>
<path d="M74.0746 140.753C74.3075 141.191 74.8507 141.357 75.2864 141.124L112.399 121.321C112.836 121.088 113.002 120.543 112.769 120.107C112.536 119.669 111.993 119.503 111.557 119.736L74.4451 139.539C74.0076 139.772 73.8418 140.316 74.0746 140.753Z" fill="#4D4D4D"/>
<path d="M111.382 119.913L112.608 111.739L101.008 118.925L99.1597 126.867L111.382 119.913Z" fill="#AB4E25"/>
<path d="M112.26 121.452L119.746 124.922L107.374 130.673L99.7378 127.849L112.26 121.452Z" fill="#FF5D16"/>
<path d="M146.065 18.8081H44.2598C38.7321 18.8081 34.251 23.2968 34.251 28.8338V71.1273C34.251 76.6643 38.7321 81.153 44.2598 81.153H146.065C151.593 81.153 156.074 76.6643 156.074 71.1273V28.8338C156.074 23.2968 151.593 18.8081 146.065 18.8081Z" fill="#FFE4D6"/>
<path d="M147.348 52.5272H97.8402C96.7392 52.5272 95.8467 53.4212 95.8467 54.5241V54.9051C95.8467 56.008 96.7392 56.902 97.8402 56.902H147.348C148.449 56.902 149.341 56.008 149.341 54.9051V54.5241C149.341 53.4212 148.449 52.5272 147.348 52.5272Z" fill="#FFAD88"/>
<path d="M147.348 59.9637H97.8402C96.7392 59.9637 95.8467 60.8578 95.8467 61.9607V62.3417C95.8467 63.4446 96.7392 64.3386 97.8402 64.3386H147.348C148.449 64.3386 149.341 63.4446 149.341 62.3417V61.9607C149.341 60.8578 148.449 59.9637 147.348 59.9637Z" fill="#FFAD88"/>
<path d="M147.348 67.8372H97.8402C96.7392 67.8372 95.8467 68.7313 95.8467 69.8341V70.2152C95.8467 71.318 96.7392 72.2121 97.8402 72.2121H147.348C148.449 72.2121 149.341 71.318 149.341 70.2152V69.8341C149.341 68.7313 148.449 67.8372 147.348 67.8372Z" fill="#FFAD88"/>
<path d="M66.3457 30.2917C54.6759 30.2917 45.2158 39.7677 45.2158 51.457C45.2158 63.1464 54.6759 72.6224 66.3457 72.6224C78.0154 72.6224 87.4755 63.1464 87.4755 51.457C87.4755 39.7677 78.0154 30.2917 66.3457 30.2917ZM66.3457 67.33C57.5934 67.33 50.4979 60.2227 50.4979 51.4557C50.4979 42.6887 57.5934 35.5814 66.3457 35.5814C75.098 35.5814 82.1934 42.6887 82.1934 51.4557C82.1934 60.2227 75.098 67.33 66.3457 67.33Z" fill="#FFAD88"/>
<path d="M77.7942 66.3727C76.9883 65.7487 76.1824 65.1247 75.3765 64.502C72.8143 66.2851 69.702 67.3314 66.3471 67.3314C57.5948 67.3314 50.4994 60.224 50.4994 51.457C50.4994 46.0492 53.9471 41.1658 58.0707 38.2992C58.0707 38.1917 54.2678 34.2072 54.2678 34.2072C49.7598 37.0286 45.2173 43.3061 45.2173 51.457C45.2173 63.1464 54.6774 72.6224 66.3471 72.6224C71.5643 72.6224 76.3388 70.7277 80.025 67.5876C79.2761 67.2052 78.5325 66.8016 77.7955 66.3727H77.7942Z" fill="#AB4E25"/>
<path d="M78.0529 62.1559C75.1554 65.3358 70.984 67.33 66.3474 67.33C57.9556 67.33 51.0882 60.7963 50.5368 52.5298C49.9973 52.5338 49.4539 52.5258 48.9078 52.5046C47.6711 52.5006 46.449 52.4488 45.2388 52.3492C45.7067 63.6243 54.9772 72.621 66.3487 72.621C73.179 72.621 78.2981 70.567 82.1607 65.5309C82.1607 65.5309 78.0701 62.1399 78.0542 62.1559H78.0529Z" fill="#FF5D16"/>
<path d="M111.991 28.2974C107.713 24.5386 101.204 24.9635 97.4512 29.2481C93.6987 33.5326 94.1229 40.0531 98.4003 43.8119C102.678 47.5707 109.187 47.1459 112.94 42.8613C116.692 38.5767 116.268 32.0562 111.991 28.2974ZM100.098 41.8734C96.8906 39.0547 96.5711 34.1633 99.3865 30.9502C102.201 27.7371 107.084 27.4171 110.291 30.2372C113.499 33.056 113.819 37.9473 111.003 41.1604C108.189 44.3736 103.306 44.6935 100.098 41.8734Z" fill="#FFAD88"/>
<path d="M104.602 45.2101C104.506 44.7215 104.411 44.2329 104.317 43.7456C102.806 43.5744 101.329 42.9543 100.099 41.8735C96.8914 39.0548 96.5719 34.1634 99.3873 30.9503C101.124 28.968 103.955 28.2882 106.387 28.567C106.422 28.5272 106.306 25.8425 106.306 25.8425C103.748 25.4243 100.067 26.2621 97.4508 29.2495C93.6983 33.5341 94.1224 40.0546 98.3998 43.8134C100.313 45.4943 102.671 46.3374 105.03 46.3745C104.878 45.9935 104.736 45.6058 104.603 45.2115L104.602 45.2101Z" fill="#AB4E25"/>
<path d="M106.049 43.7482C103.967 43.9805 101.797 43.3671 100.098 41.8734C97.0211 39.1702 96.6022 34.563 99.0544 31.3552C98.8556 31.1826 98.6594 31.0046 98.4646 30.8214C98.0126 30.4218 97.5805 30.0088 97.1696 29.5826C93.7206 33.8659 94.2309 40.15 98.3983 43.8133C100.902 46.0133 103.438 46.9095 106.471 46.3081C106.471 46.3081 106.06 43.7469 106.049 43.7482Z" fill="#FF5D16"/>
<path d="M140.353 28.2788C136.065 24.532 129.557 24.9754 125.816 29.2706C122.076 33.5659 122.519 40.085 126.807 43.8319C131.095 47.5787 137.603 47.1353 141.343 42.84C145.084 38.5448 144.641 32.0257 140.353 28.2788ZM128.499 41.8881C125.284 39.0773 124.951 34.1886 127.757 30.9662C130.563 27.7451 135.444 27.4118 138.659 30.2226C141.875 33.0334 142.208 37.9221 139.402 41.1445C136.595 44.3656 131.715 44.6989 128.499 41.8881Z" fill="#FFAD88"/>
<path d="M133.011 45.2126C132.915 44.724 132.818 44.2367 132.722 43.7481C131.21 43.5808 129.732 42.9661 128.499 41.8879C125.284 39.0771 124.951 34.1884 127.757 30.966C129.488 28.9784 132.318 28.292 134.75 28.5628C134.785 28.523 134.663 25.8383 134.663 25.8383C132.103 25.4281 128.425 26.2752 125.816 29.2705C122.076 33.5657 122.519 40.0849 126.807 43.8317C128.723 45.5073 131.084 46.3438 133.443 46.3743C133.291 45.9933 133.146 45.6056 133.013 45.2126H133.011Z" fill="#AB4E25"/>
<path d="M134.456 43.7455C132.373 43.9832 130.202 43.3764 128.499 41.888C125.416 39.1927 124.984 34.5869 127.427 31.3724C127.226 31.1998 127.03 31.0232 126.835 30.84C126.382 30.4417 125.95 30.0301 125.536 29.6039C122.099 33.8964 122.627 40.1793 126.805 43.8305C129.314 46.0239 131.852 46.9135 134.884 46.3027C134.884 46.3027 134.466 43.7429 134.456 43.7442V43.7455Z" fill="#FF5D16"/>
<path d="M232.845 26.5714H171.604C167.066 26.5714 163.386 30.2569 163.386 34.8033V84.2599C163.386 88.8063 167.066 92.4918 171.604 92.4918H232.845C237.384 92.4918 241.063 88.8063 241.063 84.2599V34.8033C241.063 30.2569 237.384 26.5714 232.845 26.5714Z" fill="#FFE4D6"/>
<path d="M188.207 70.9135H179.228V86.902H188.207V70.9135Z" fill="#FF5D16"/>
<path d="M201.175 63.0853H193.029V86.9008H201.175V63.0853Z" fill="#FF5D16"/>
<path d="M215.308 54.0925H206.995V86.9021H215.308V54.0925Z" fill="#FF5D16"/>
<path d="M228.443 43.2662H220.296V86.9007H228.443V43.2662Z" fill="#FF5D16"/>
<path d="M215.312 29.5109L204.104 34.79L208.678 37.9765L199.861 50.6763L190.423 47.3171L179.453 63.1171L180.472 63.8274L190.902 48.8082L200.338 52.1673L209.697 38.6869L214.273 41.8734L215.312 29.5109Z" fill="#FF5D16"/>
<path d="M114.528 209.088C96.9063 191.37 96.9063 162.645 114.528 144.928C132.149 127.211 160.719 127.211 178.341 144.928C195.962 162.645 195.962 191.37 178.341 209.088C160.719 226.805 132.149 226.805 114.528 209.088Z" fill="#331201"/>
<path d="M168.023 205.3L152.254 212.178L165.299 242.415C166.436 245.051 169.489 246.263 172.11 245.12L178.379 242.386C181.001 241.243 182.206 238.174 181.069 235.538L168.023 205.3Z" fill="#331201"/>
<path d="M119.378 203.553C104.694 188.789 104.694 164.851 119.378 150.087C134.063 135.323 157.871 135.323 172.556 150.087C187.24 164.851 187.24 188.789 172.556 203.553C157.871 218.318 134.063 218.318 119.378 203.553Z" fill="#FF5D16"/>
<g opacity="0.75">
<path d="M127.615 153.891C132.307 151.255 136.525 158.053 132.156 161.186C132.07 161.25 131.984 161.308 131.891 161.373C122.888 167.652 120.374 172.679 121.055 177.871C121.735 183.063 118.075 185.446 115.053 182.055C112.03 178.663 114.236 167.494 117.037 163.137C119.006 160.069 122.738 156.627 127.615 153.883V153.891Z" fill="#FFAD88"/>
<path d="M136.174 153.221C137.277 155.777 140.228 156.944 142.771 155.842C145.313 154.733 146.474 151.766 145.378 149.21C144.275 146.653 141.324 145.487 138.781 146.589C136.239 147.698 135.078 150.665 136.174 153.221Z" fill="#FFAD88"/>
</g>
</g>
<defs>
<clipPath id="clip0_66_6083">
<rect width="266" height="266" fill="white"/>
</clipPath>
</defs>
</svg>
