<svg width="32" height="32" viewBox="0 0 32 32" fill="none" xmlns="http://www.w3.org/2000/svg">
<path d="M27.5067 7.99992H24V6.50659C23.9986 5.13497 23.4531 3.81993 22.4832 2.85005C21.5133 1.88016 20.1983 1.33466 18.8267 1.33325H13.1733C11.8017 1.33466 10.4867 1.88016 9.5168 2.85005C8.54691 3.81993 8.00141 5.13497 8 6.50659V7.99992H4.49334C4.07831 7.99974 3.66732 8.08136 3.28385 8.2401C2.90038 8.39885 2.55196 8.6316 2.25849 8.92507C1.96502 9.21854 1.73226 9.56696 1.57352 9.95043C1.41478 10.3339 1.33316 10.7449 1.33334 11.1599V26.1733C1.33316 26.5883 1.41478 26.9993 1.57352 27.3827C1.73226 27.7662 1.96502 28.1146 2.25849 28.4081C2.55196 28.7016 2.90038 28.9343 3.28385 29.0931C3.66732 29.2518 4.07831 29.3334 4.49334 29.3333H27.5067C27.9217 29.3334 28.3327 29.2518 28.7162 29.0931C29.0996 28.9343 29.448 28.7016 29.7415 28.4081C30.035 28.1146 30.2677 27.7662 30.4265 27.3827C30.5852 26.9993 30.6668 26.5883 30.6667 26.1733V11.1599C30.6668 10.7449 30.5852 10.3339 30.4265 9.95043C30.2677 9.56696 30.035 9.21854 29.7415 8.92507C29.448 8.6316 29.0996 8.39885 28.7162 8.2401C28.3327 8.08136 27.9217 7.99974 27.5067 7.99992ZM10.6667 6.50659C10.6663 6.17731 10.7309 5.85119 10.8568 5.54691C10.9826 5.24263 11.1672 4.96616 11.4001 4.73332C11.6329 4.50049 11.9094 4.31586 12.2137 4.19001C12.5179 4.06417 12.8441 3.99957 13.1733 3.99992H18.8267C19.1559 3.99957 19.4821 4.06417 19.7863 4.19001C20.0906 4.31586 20.3671 4.50049 20.5999 4.73332C20.8328 4.96616 21.0174 5.24263 21.1432 5.54691C21.2691 5.85119 21.3337 6.17731 21.3333 6.50659V7.99992H10.6667V6.50659ZM26.28 14.2799L22.28 18.2799C22.0258 18.5255 21.6868 18.664 21.3333 18.6666H10.6667C10.3132 18.664 9.97425 18.5255 9.72 18.2799L5.72 14.2799C5.46893 14.0288 5.32788 13.6883 5.32788 13.3333C5.32788 12.9782 5.46893 12.6377 5.72 12.3866C5.97107 12.1355 6.3116 11.9945 6.66667 11.9945C7.02174 11.9945 7.36226 12.1355 7.61334 12.3866L11.2133 15.9999H20.7867L24.3867 12.3866C24.6377 12.1355 24.9783 11.9945 25.3333 11.9945C25.6884 11.9945 26.0289 12.1355 26.28 12.3866C26.5311 12.6377 26.6721 12.9782 26.6721 13.3333C26.6721 13.6883 26.5311 14.0288 26.28 14.2799Z" fill="white"/>
</svg>
