<svg width="40" height="40" viewBox="0 0 40 40" fill="none" xmlns="http://www.w3.org/2000/svg">
<rect width="40" height="40" rx="10" fill="white"/>
<g clip-path="url(#clip0_66_5812)">
<path d="M29.1668 22.0833C29.1668 25.43 28.8402 28.1117 28.8268 28.2242C28.7902 28.52 28.5993 28.7742 28.3235 28.89C28.2568 28.9183 27.641 29.1667 26.6668 29.1667C25.6927 29.1667 25.0768 28.9183 25.0102 28.89C24.7352 28.7742 24.5435 28.5208 24.5068 28.2242C24.4927 28.1117 24.1668 25.4292 24.1668 22.0833C24.1668 18.7375 24.4935 16.055 24.5068 15.9425C24.5435 15.6467 24.7343 15.3925 25.0102 15.2767C25.0768 15.2483 25.6927 15 26.6668 15C27.641 15 28.2568 15.2483 28.3235 15.2767C28.5985 15.3925 28.7902 15.6458 28.8268 15.9425C28.841 16.055 29.1668 18.7375 29.1668 22.0833ZM21.7427 11.2225C21.6718 11.1825 21.0227 10.8333 20.0002 10.8333C18.9777 10.8333 18.3285 11.1825 18.2577 11.2225C18.0202 11.3558 17.8627 11.5975 17.8368 11.8683C17.8335 11.9033 17.5002 15.4292 17.5002 20C17.5002 24.5708 17.8335 28.0967 17.8368 28.1317C17.8627 28.4025 18.0202 28.6442 18.2577 28.7775C18.3285 28.8175 18.9777 29.1667 20.0002 29.1667C21.0227 29.1667 21.6718 28.8175 21.7427 28.7775C21.9793 28.6442 22.1368 28.4025 22.1627 28.1317C22.166 28.0967 22.5002 24.5708 22.5002 20C22.5002 15.4292 22.166 11.9033 22.1627 11.8683C22.1368 11.5975 21.9793 11.3558 21.7427 11.2225ZM14.986 20.2708C14.9193 20.2433 14.3043 20 13.3335 20C12.3627 20 11.7518 20.2392 11.6852 20.2658C11.4235 20.3725 11.2335 20.605 11.181 20.8833C11.1668 20.9592 10.8335 22.7533 10.8335 24.5825C10.8335 26.4117 11.151 28.1892 11.1643 28.2642C11.2143 28.5417 11.4018 28.775 11.6618 28.8842C11.731 28.9133 12.3602 29.1658 13.3335 29.1658C14.2818 29.1658 14.9193 28.9508 14.9885 28.9267C15.276 28.825 15.4852 28.5742 15.5343 28.2733C15.5468 28.1975 15.8335 26.4017 15.8335 24.5825C15.8335 22.7533 15.5002 20.9608 15.486 20.8858C15.4343 20.6092 15.246 20.3792 14.986 20.2708Z" fill="#FF5D16"/>
</g>
<defs>
<clipPath id="clip0_66_5812">
<rect width="20" height="20" fill="white" transform="translate(10 10)"/>
</clipPath>
</defs>
</svg>
