<svg width="40" height="40" viewBox="0 0 40 40" fill="none" xmlns="http://www.w3.org/2000/svg">
<rect width="40" height="40" rx="10" fill="white"/>
<g clip-path="url(#clip0_66_5813)">
<path d="M29.4138 28.8281H28.7888V17.2658C28.7888 16.9422 28.5265 16.6798 28.2029 16.6798H25.8592C25.5356 16.6798 25.2732 16.9422 25.2732 17.2658V28.8281H24.1014V21.172C24.1014 20.8484 23.839 20.586 23.5154 20.586H21.1717C20.8481 20.586 20.5858 20.8484 20.5858 21.172V28.8281H19.4139V23.3204C19.4139 22.9968 19.1516 22.7344 18.828 22.7344H16.4843C16.1607 22.7344 15.8984 22.9968 15.8984 23.3204V28.8281H14.7265V24.7266C14.7265 24.403 14.4642 24.1407 14.1406 24.1407H11.7969C11.4733 24.1407 11.2109 24.403 11.2109 24.7266V28.8281H10.5859C10.2623 28.8281 10 29.0905 10 29.414C10 29.7376 10.2623 30 10.5859 30H29.4138C29.7374 30 29.9997 29.7376 29.9997 29.414C29.9997 29.0905 29.7374 28.8281 29.4138 28.8281Z" fill="#FF5D16"/>
<path d="M10.5859 22.5901C14.2428 22.5901 18.2085 21.2768 21.7524 18.892C24.528 17.0243 26.8416 14.6382 28.2788 12.195L28.8479 14.3187C28.918 14.5805 29.2567 14.8067 29.5655 14.733C29.8802 14.6579 30.0635 14.328 29.9798 14.0154L29.0203 10.4346C28.9365 10.1221 28.6154 9.93652 28.3027 10.0203L24.7219 10.9798C24.4093 11.0635 24.2238 11.3848 24.3076 11.6974C24.3914 12.01 24.7125 12.1955 25.0252 12.1117L27.332 11.4936C25.9912 13.8235 23.7753 16.1183 21.0982 17.9198C17.7456 20.1758 14.0122 21.4183 10.5859 21.4183C10.2623 21.4183 10 21.6806 10 22.0042C10 22.3278 10.2623 22.5901 10.5859 22.5901Z" fill="#FF5D16"/>
</g>
<defs>
<clipPath id="clip0_66_5813">
<rect width="20" height="20" fill="white" transform="translate(10 10)"/>
</clipPath>
</defs>
</svg>
