<svg width="32" height="32" viewBox="0 0 32 32" fill="none" xmlns="http://www.w3.org/2000/svg">
<path d="M28.3643 22.9951H3.51975C1.84532 22.9951 0.483002 24.4688 0.483002 26.2806C0.483002 28.0915 1.84532 29.5661 3.51975 29.5661H28.3643C30.0387 29.5661 31.401 28.0915 31.401 26.2806C31.401 24.4686 30.0387 22.9951 28.3643 22.9951ZM28.3643 12.6348H3.51975C1.84532 12.6348 0.483002 14.1084 0.483002 15.9205C0.483002 17.7314 1.84532 19.206 3.51975 19.206H28.3643C30.0387 19.206 31.401 17.7314 31.401 15.9205C31.401 14.1084 30.0387 12.6348 28.3643 12.6348ZM3.51975 8.84469L28.3643 8.84493C30.0387 8.84493 31.401 7.37126 31.401 5.56015C31.401 3.74833 30.0387 2.27466 28.3643 2.27466H3.51975C1.84532 2.27466 0.483002 3.74833 0.483002 5.56015C0.483002 7.37126 1.84532 8.84469 3.51975 8.84469Z" fill="white"/>
</svg>
