<svg width="40" height="40" viewBox="0 0 40 40" fill="none" xmlns="http://www.w3.org/2000/svg">
<rect width="40" height="40" rx="10" fill="white"/>
<g clip-path="url(#clip0_66_5817)">
<path d="M28.4649 13.1055C28.4649 12.6016 28.3516 12.4492 27.879 12.3047C25.3633 11.5508 22.8438 10.7969 20.3243 10.0469C20.1212 9.98827 19.9063 9.98437 19.7032 10.0391C17.1602 10.7891 14.6251 11.5469 12.0899 12.3164C11.6524 12.4492 11.5352 12.6172 11.5352 13.0742V17.4062C11.5352 18.7617 11.5235 20.1133 11.543 21.4687C11.5508 21.9062 11.6055 22.3359 11.7149 22.7617C11.9766 23.793 12.5508 24.6601 13.2579 25.4375C15.0626 27.4297 17.3048 28.8047 19.7032 29.9492C19.8829 30.0351 20.1837 30.0117 20.3673 29.918C21.2344 29.4805 22.1016 29.0312 22.9298 28.5273C24.504 27.5664 25.9649 26.4609 27.1173 25C27.9024 24.0039 28.461 22.9023 28.4688 21.6016C28.4766 18.7695 28.4688 15.9375 28.4649 13.1055ZM20.6837 20.2109V22.1328C20.6915 22.5117 20.3946 22.8242 20.0157 22.8359C19.6368 22.8437 19.3243 22.5469 19.3126 22.168C19.3126 22.1562 19.3126 22.1445 19.3126 22.1367V20.2148C18.5196 19.8359 18.1837 18.8867 18.5626 18.0937C18.9415 17.3008 19.8907 16.9648 20.6837 17.3437C21.4766 17.7226 21.8126 18.6719 21.4337 19.4648C21.2813 19.7851 21.0157 20.0508 20.6837 20.2109Z" fill="#FF5D16"/>
</g>
<defs>
<clipPath id="clip0_66_5817">
<rect width="20" height="20" fill="white" transform="translate(10 10)"/>
</clipPath>
</defs>
</svg>
